G04 #@! TF.FileFunction,Copper,L2,Bot,Signal*
%FSLAX46Y46*%
G04 Gerber Fmt 4.6, Leading zero omitted, Abs format (unit mm)*
G04 Created by KiCad (PCBNEW (2015-08-01 BZR 6032, Git 6a6a55f)-product) date 23-Aug-15 5:30:30 PM*
%MOMM*%
G01*
G04 APERTURE LIST*
%ADD10C,0.100000*%
%ADD11R,3.500120X3.500120*%
%ADD12O,0.899160X1.501140*%
%ADD13O,1.501140X0.899160*%
%ADD14C,0.600000*%
%ADD15C,0.450000*%
%ADD16C,0.250000*%
%ADD17C,0.254000*%
G04 APERTURE END LIST*
D10*
D11*
X107800140Y-85090000D03*
X101800660Y-85090000D03*
X104800400Y-89789000D03*
D12*
X101600000Y-95250000D03*
X102870000Y-95250000D03*
X100330000Y-95250000D03*
X101600000Y-100330000D03*
X102870000Y-100330000D03*
X100330000Y-100330000D03*
X106680000Y-95250000D03*
X107950000Y-95250000D03*
X105410000Y-95250000D03*
X106680000Y-100330000D03*
X107950000Y-100330000D03*
X105410000Y-100330000D03*
D13*
X96520000Y-100330000D03*
X96520000Y-99060000D03*
X96520000Y-101600000D03*
D14*
X115570000Y-99060000D03*
X107950000Y-90170000D03*
X107950000Y-88900000D03*
X109220000Y-88900000D03*
X110490000Y-102870000D03*
X111760000Y-92710000D03*
X110490000Y-92710000D03*
X101600000Y-90170000D03*
X100330000Y-90170000D03*
X100330000Y-88900000D03*
X101600000Y-88900000D03*
X97790000Y-104140000D03*
X114300000Y-81280000D03*
X115570000Y-86360000D03*
X113030000Y-82550000D03*
X114300000Y-83820000D03*
X109220000Y-101600000D03*
X114300000Y-88900000D03*
X113030000Y-87630000D03*
X114300000Y-85090000D03*
X113030000Y-102870000D03*
D15*
X115570000Y-99060000D02*
X115570000Y-88900000D01*
X115570000Y-88900000D02*
X113030000Y-86360000D01*
X113030000Y-86360000D02*
X109070140Y-86360000D01*
X109070140Y-86360000D02*
X107800140Y-85090000D01*
X110490000Y-92710000D02*
X111760000Y-92710000D01*
X104800400Y-89789000D02*
X101981000Y-89789000D01*
X101981000Y-89789000D02*
X101600000Y-90170000D01*
X100330000Y-90170000D02*
X100330000Y-88900000D01*
D16*
X114300000Y-81280000D02*
X99060000Y-81280000D01*
X99060000Y-81280000D02*
X96520000Y-83820000D01*
X96520000Y-83820000D02*
X96520000Y-87630000D01*
X96520000Y-87630000D02*
X93980000Y-90170000D01*
X93980000Y-90170000D02*
X93980000Y-102870000D01*
X93980000Y-102870000D02*
X95250000Y-104140000D01*
X95250000Y-104140000D02*
X97790000Y-104140000D01*
X115570000Y-85090000D02*
X115570000Y-86360000D01*
X115570000Y-83820000D02*
X115570000Y-85090000D01*
X114300000Y-82550000D02*
X115570000Y-83820000D01*
X113030000Y-82550000D02*
X114300000Y-82550000D01*
X105410000Y-82550000D02*
X111760000Y-82550000D01*
X113030000Y-83820000D02*
X111760000Y-82550000D01*
X113030000Y-83820000D02*
X114300000Y-83820000D01*
X105410000Y-82550000D02*
X99060000Y-82550000D01*
X99060000Y-82550000D02*
X109220000Y-82550000D01*
X109220000Y-82550000D02*
X105410000Y-82550000D01*
X105410000Y-82550000D02*
X99060000Y-82550000D01*
X99060000Y-82550000D02*
X97790000Y-83820000D01*
X97790000Y-83820000D02*
X97790000Y-87630000D01*
X97790000Y-87630000D02*
X95250000Y-90170000D01*
X95250000Y-90170000D02*
X95250000Y-102870000D01*
X95250000Y-102870000D02*
X106680000Y-102870000D01*
X106680000Y-102870000D02*
X107950000Y-101600000D01*
X107950000Y-101600000D02*
X109220000Y-101600000D01*
X100330000Y-95250000D02*
X100330000Y-100330000D01*
X107950000Y-91440000D02*
X107950000Y-95250000D01*
X109220000Y-90170000D02*
X107950000Y-91440000D01*
X113030000Y-90170000D02*
X109220000Y-90170000D01*
X114300000Y-88900000D02*
X113030000Y-90170000D01*
X105410000Y-95250000D02*
X105410000Y-100330000D01*
X96520000Y-90170000D02*
X96520000Y-99060000D01*
X99060000Y-87630000D02*
X96520000Y-90170000D01*
X101600000Y-87630000D02*
X99060000Y-87630000D01*
X109220000Y-87630000D02*
X101600000Y-87630000D01*
X113030000Y-87630000D02*
X109220000Y-87630000D01*
X114300000Y-85090000D02*
X114300000Y-86360000D01*
X114300000Y-86360000D02*
X116840000Y-88900000D01*
X115570000Y-102870000D02*
X113030000Y-102870000D01*
X116840000Y-101600000D02*
X115570000Y-102870000D01*
X116840000Y-88900000D02*
X116840000Y-101600000D01*
D17*
G36*
X102415340Y-89503250D02*
X102574090Y-89662000D01*
X104673400Y-89662000D01*
X104673400Y-89642000D01*
X104927400Y-89642000D01*
X104927400Y-89662000D01*
X107026710Y-89662000D01*
X107185460Y-89503250D01*
X107185460Y-88390000D01*
X112467537Y-88390000D01*
X112499673Y-88422192D01*
X112843201Y-88564838D01*
X112903000Y-88564890D01*
X112903000Y-89222198D01*
X112715198Y-89410000D01*
X109220000Y-89410000D01*
X108929160Y-89467852D01*
X108682599Y-89632599D01*
X107412599Y-90902599D01*
X107247852Y-91149161D01*
X107190000Y-91440000D01*
X107190000Y-93983287D01*
X107095051Y-93919844D01*
X106680000Y-93837285D01*
X106264949Y-93919844D01*
X106045000Y-94066809D01*
X105825051Y-93919844D01*
X105410000Y-93837285D01*
X104994949Y-93919844D01*
X104643086Y-94154951D01*
X104407979Y-94506814D01*
X104325420Y-94921865D01*
X104325420Y-95578135D01*
X104407979Y-95993186D01*
X104643086Y-96345049D01*
X104650000Y-96349669D01*
X104650000Y-99230331D01*
X104643086Y-99234951D01*
X104407979Y-99586814D01*
X104325420Y-100001865D01*
X104325420Y-100658135D01*
X104407979Y-101073186D01*
X104643086Y-101425049D01*
X104994949Y-101660156D01*
X105410000Y-101742715D01*
X105825051Y-101660156D01*
X106049238Y-101510359D01*
X106386065Y-101674981D01*
X106553000Y-101548068D01*
X106553000Y-100457000D01*
X106533000Y-100457000D01*
X106533000Y-100203000D01*
X106553000Y-100203000D01*
X106553000Y-99111932D01*
X106386065Y-98985019D01*
X106170000Y-99090619D01*
X106170000Y-96516713D01*
X106264949Y-96580156D01*
X106680000Y-96662715D01*
X107095051Y-96580156D01*
X107315000Y-96433191D01*
X107534949Y-96580156D01*
X107950000Y-96662715D01*
X108365051Y-96580156D01*
X108716914Y-96345049D01*
X108952021Y-95993186D01*
X109034580Y-95578135D01*
X109034580Y-94921865D01*
X108952021Y-94506814D01*
X108716914Y-94154951D01*
X108710000Y-94150331D01*
X108710000Y-91754802D01*
X109534802Y-90930000D01*
X112903000Y-90930000D01*
X112903000Y-101934889D01*
X112844833Y-101934838D01*
X112501057Y-102076883D01*
X112237808Y-102339673D01*
X112095162Y-102683201D01*
X112094838Y-103055167D01*
X112236883Y-103398943D01*
X112499673Y-103662192D01*
X112843201Y-103804838D01*
X112903000Y-103804890D01*
X112903000Y-104013000D01*
X110542606Y-104013000D01*
X109309803Y-102780197D01*
X109267789Y-102752334D01*
X109220000Y-102743000D01*
X107881802Y-102743000D01*
X108264802Y-102360000D01*
X108657537Y-102360000D01*
X108689673Y-102392192D01*
X109033201Y-102534838D01*
X109405167Y-102535162D01*
X109748943Y-102393117D01*
X110012192Y-102130327D01*
X110154838Y-101786799D01*
X110155162Y-101414833D01*
X110013117Y-101071057D01*
X109750327Y-100807808D01*
X109406799Y-100665162D01*
X109034833Y-100664838D01*
X109033105Y-100665552D01*
X109034580Y-100658135D01*
X109034580Y-100001865D01*
X108952021Y-99586814D01*
X108716914Y-99234951D01*
X108365051Y-98999844D01*
X107950000Y-98917285D01*
X107534949Y-98999844D01*
X107310762Y-99149641D01*
X106973935Y-98985019D01*
X106807000Y-99111932D01*
X106807000Y-100203000D01*
X106827000Y-100203000D01*
X106827000Y-100457000D01*
X106807000Y-100457000D01*
X106807000Y-101548068D01*
X106875246Y-101599952D01*
X106365198Y-102110000D01*
X97759381Y-102110000D01*
X97864981Y-101893935D01*
X97738068Y-101727000D01*
X96647000Y-101727000D01*
X96647000Y-101747000D01*
X96393000Y-101747000D01*
X96393000Y-101727000D01*
X96373000Y-101727000D01*
X96373000Y-101473000D01*
X96393000Y-101473000D01*
X96393000Y-101453000D01*
X96647000Y-101453000D01*
X96647000Y-101473000D01*
X97738068Y-101473000D01*
X97864981Y-101306065D01*
X97700359Y-100969238D01*
X97850156Y-100745051D01*
X97932715Y-100330000D01*
X97850156Y-99914949D01*
X97703191Y-99695000D01*
X97850156Y-99475051D01*
X97932715Y-99060000D01*
X97850156Y-98644949D01*
X97615049Y-98293086D01*
X97280000Y-98069214D01*
X97280000Y-94921865D01*
X99245420Y-94921865D01*
X99245420Y-95578135D01*
X99327979Y-95993186D01*
X99563086Y-96345049D01*
X99570000Y-96349669D01*
X99570000Y-99230331D01*
X99563086Y-99234951D01*
X99327979Y-99586814D01*
X99245420Y-100001865D01*
X99245420Y-100658135D01*
X99327979Y-101073186D01*
X99563086Y-101425049D01*
X99914949Y-101660156D01*
X100330000Y-101742715D01*
X100745051Y-101660156D01*
X100969238Y-101510359D01*
X101306065Y-101674981D01*
X101473000Y-101548068D01*
X101473000Y-100457000D01*
X101453000Y-100457000D01*
X101453000Y-100203000D01*
X101473000Y-100203000D01*
X101473000Y-99111932D01*
X101727000Y-99111932D01*
X101727000Y-100203000D01*
X101747000Y-100203000D01*
X101747000Y-100457000D01*
X101727000Y-100457000D01*
X101727000Y-101548068D01*
X101893935Y-101674981D01*
X102230762Y-101510359D01*
X102454949Y-101660156D01*
X102870000Y-101742715D01*
X103285051Y-101660156D01*
X103636914Y-101425049D01*
X103872021Y-101073186D01*
X103954580Y-100658135D01*
X103954580Y-100001865D01*
X103872021Y-99586814D01*
X103636914Y-99234951D01*
X103285051Y-98999844D01*
X102870000Y-98917285D01*
X102454949Y-98999844D01*
X102230762Y-99149641D01*
X101893935Y-98985019D01*
X101727000Y-99111932D01*
X101473000Y-99111932D01*
X101306065Y-98985019D01*
X101090000Y-99090619D01*
X101090000Y-96516713D01*
X101184949Y-96580156D01*
X101600000Y-96662715D01*
X102015051Y-96580156D01*
X102235000Y-96433191D01*
X102454949Y-96580156D01*
X102870000Y-96662715D01*
X103285051Y-96580156D01*
X103636914Y-96345049D01*
X103872021Y-95993186D01*
X103954580Y-95578135D01*
X103954580Y-94921865D01*
X103872021Y-94506814D01*
X103636914Y-94154951D01*
X103285051Y-93919844D01*
X102870000Y-93837285D01*
X102454949Y-93919844D01*
X102235000Y-94066809D01*
X102015051Y-93919844D01*
X101600000Y-93837285D01*
X101184949Y-93919844D01*
X100965000Y-94066809D01*
X100745051Y-93919844D01*
X100330000Y-93837285D01*
X99914949Y-93919844D01*
X99563086Y-94154951D01*
X99327979Y-94506814D01*
X99245420Y-94921865D01*
X97280000Y-94921865D01*
X97280000Y-90484802D01*
X97690052Y-90074750D01*
X102415340Y-90074750D01*
X102415340Y-91665370D01*
X102512013Y-91898759D01*
X102690642Y-92077387D01*
X102924031Y-92174060D01*
X104514650Y-92174060D01*
X104673400Y-92015310D01*
X104673400Y-89916000D01*
X104927400Y-89916000D01*
X104927400Y-92015310D01*
X105086150Y-92174060D01*
X106676769Y-92174060D01*
X106910158Y-92077387D01*
X107088787Y-91898759D01*
X107185460Y-91665370D01*
X107185460Y-90074750D01*
X107026710Y-89916000D01*
X104927400Y-89916000D01*
X104673400Y-89916000D01*
X102574090Y-89916000D01*
X102415340Y-90074750D01*
X97690052Y-90074750D01*
X99374802Y-88390000D01*
X102415340Y-88390000D01*
X102415340Y-89503250D01*
X102415340Y-89503250D01*
G37*
X102415340Y-89503250D02*
X102574090Y-89662000D01*
X104673400Y-89662000D01*
X104673400Y-89642000D01*
X104927400Y-89642000D01*
X104927400Y-89662000D01*
X107026710Y-89662000D01*
X107185460Y-89503250D01*
X107185460Y-88390000D01*
X112467537Y-88390000D01*
X112499673Y-88422192D01*
X112843201Y-88564838D01*
X112903000Y-88564890D01*
X112903000Y-89222198D01*
X112715198Y-89410000D01*
X109220000Y-89410000D01*
X108929160Y-89467852D01*
X108682599Y-89632599D01*
X107412599Y-90902599D01*
X107247852Y-91149161D01*
X107190000Y-91440000D01*
X107190000Y-93983287D01*
X107095051Y-93919844D01*
X106680000Y-93837285D01*
X106264949Y-93919844D01*
X106045000Y-94066809D01*
X105825051Y-93919844D01*
X105410000Y-93837285D01*
X104994949Y-93919844D01*
X104643086Y-94154951D01*
X104407979Y-94506814D01*
X104325420Y-94921865D01*
X104325420Y-95578135D01*
X104407979Y-95993186D01*
X104643086Y-96345049D01*
X104650000Y-96349669D01*
X104650000Y-99230331D01*
X104643086Y-99234951D01*
X104407979Y-99586814D01*
X104325420Y-100001865D01*
X104325420Y-100658135D01*
X104407979Y-101073186D01*
X104643086Y-101425049D01*
X104994949Y-101660156D01*
X105410000Y-101742715D01*
X105825051Y-101660156D01*
X106049238Y-101510359D01*
X106386065Y-101674981D01*
X106553000Y-101548068D01*
X106553000Y-100457000D01*
X106533000Y-100457000D01*
X106533000Y-100203000D01*
X106553000Y-100203000D01*
X106553000Y-99111932D01*
X106386065Y-98985019D01*
X106170000Y-99090619D01*
X106170000Y-96516713D01*
X106264949Y-96580156D01*
X106680000Y-96662715D01*
X107095051Y-96580156D01*
X107315000Y-96433191D01*
X107534949Y-96580156D01*
X107950000Y-96662715D01*
X108365051Y-96580156D01*
X108716914Y-96345049D01*
X108952021Y-95993186D01*
X109034580Y-95578135D01*
X109034580Y-94921865D01*
X108952021Y-94506814D01*
X108716914Y-94154951D01*
X108710000Y-94150331D01*
X108710000Y-91754802D01*
X109534802Y-90930000D01*
X112903000Y-90930000D01*
X112903000Y-101934889D01*
X112844833Y-101934838D01*
X112501057Y-102076883D01*
X112237808Y-102339673D01*
X112095162Y-102683201D01*
X112094838Y-103055167D01*
X112236883Y-103398943D01*
X112499673Y-103662192D01*
X112843201Y-103804838D01*
X112903000Y-103804890D01*
X112903000Y-104013000D01*
X110542606Y-104013000D01*
X109309803Y-102780197D01*
X109267789Y-102752334D01*
X109220000Y-102743000D01*
X107881802Y-102743000D01*
X108264802Y-102360000D01*
X108657537Y-102360000D01*
X108689673Y-102392192D01*
X109033201Y-102534838D01*
X109405167Y-102535162D01*
X109748943Y-102393117D01*
X110012192Y-102130327D01*
X110154838Y-101786799D01*
X110155162Y-101414833D01*
X110013117Y-101071057D01*
X109750327Y-100807808D01*
X109406799Y-100665162D01*
X109034833Y-100664838D01*
X109033105Y-100665552D01*
X109034580Y-100658135D01*
X109034580Y-100001865D01*
X108952021Y-99586814D01*
X108716914Y-99234951D01*
X108365051Y-98999844D01*
X107950000Y-98917285D01*
X107534949Y-98999844D01*
X107310762Y-99149641D01*
X106973935Y-98985019D01*
X106807000Y-99111932D01*
X106807000Y-100203000D01*
X106827000Y-100203000D01*
X106827000Y-100457000D01*
X106807000Y-100457000D01*
X106807000Y-101548068D01*
X106875246Y-101599952D01*
X106365198Y-102110000D01*
X97759381Y-102110000D01*
X97864981Y-101893935D01*
X97738068Y-101727000D01*
X96647000Y-101727000D01*
X96647000Y-101747000D01*
X96393000Y-101747000D01*
X96393000Y-101727000D01*
X96373000Y-101727000D01*
X96373000Y-101473000D01*
X96393000Y-101473000D01*
X96393000Y-101453000D01*
X96647000Y-101453000D01*
X96647000Y-101473000D01*
X97738068Y-101473000D01*
X97864981Y-101306065D01*
X97700359Y-100969238D01*
X97850156Y-100745051D01*
X97932715Y-100330000D01*
X97850156Y-99914949D01*
X97703191Y-99695000D01*
X97850156Y-99475051D01*
X97932715Y-99060000D01*
X97850156Y-98644949D01*
X97615049Y-98293086D01*
X97280000Y-98069214D01*
X97280000Y-94921865D01*
X99245420Y-94921865D01*
X99245420Y-95578135D01*
X99327979Y-95993186D01*
X99563086Y-96345049D01*
X99570000Y-96349669D01*
X99570000Y-99230331D01*
X99563086Y-99234951D01*
X99327979Y-99586814D01*
X99245420Y-100001865D01*
X99245420Y-100658135D01*
X99327979Y-101073186D01*
X99563086Y-101425049D01*
X99914949Y-101660156D01*
X100330000Y-101742715D01*
X100745051Y-101660156D01*
X100969238Y-101510359D01*
X101306065Y-101674981D01*
X101473000Y-101548068D01*
X101473000Y-100457000D01*
X101453000Y-100457000D01*
X101453000Y-100203000D01*
X101473000Y-100203000D01*
X101473000Y-99111932D01*
X101727000Y-99111932D01*
X101727000Y-100203000D01*
X101747000Y-100203000D01*
X101747000Y-100457000D01*
X101727000Y-100457000D01*
X101727000Y-101548068D01*
X101893935Y-101674981D01*
X102230762Y-101510359D01*
X102454949Y-101660156D01*
X102870000Y-101742715D01*
X103285051Y-101660156D01*
X103636914Y-101425049D01*
X103872021Y-101073186D01*
X103954580Y-100658135D01*
X103954580Y-100001865D01*
X103872021Y-99586814D01*
X103636914Y-99234951D01*
X103285051Y-98999844D01*
X102870000Y-98917285D01*
X102454949Y-98999844D01*
X102230762Y-99149641D01*
X101893935Y-98985019D01*
X101727000Y-99111932D01*
X101473000Y-99111932D01*
X101306065Y-98985019D01*
X101090000Y-99090619D01*
X101090000Y-96516713D01*
X101184949Y-96580156D01*
X101600000Y-96662715D01*
X102015051Y-96580156D01*
X102235000Y-96433191D01*
X102454949Y-96580156D01*
X102870000Y-96662715D01*
X103285051Y-96580156D01*
X103636914Y-96345049D01*
X103872021Y-95993186D01*
X103954580Y-95578135D01*
X103954580Y-94921865D01*
X103872021Y-94506814D01*
X103636914Y-94154951D01*
X103285051Y-93919844D01*
X102870000Y-93837285D01*
X102454949Y-93919844D01*
X102235000Y-94066809D01*
X102015051Y-93919844D01*
X101600000Y-93837285D01*
X101184949Y-93919844D01*
X100965000Y-94066809D01*
X100745051Y-93919844D01*
X100330000Y-93837285D01*
X99914949Y-93919844D01*
X99563086Y-94154951D01*
X99327979Y-94506814D01*
X99245420Y-94921865D01*
X97280000Y-94921865D01*
X97280000Y-90484802D01*
X97690052Y-90074750D01*
X102415340Y-90074750D01*
X102415340Y-91665370D01*
X102512013Y-91898759D01*
X102690642Y-92077387D01*
X102924031Y-92174060D01*
X104514650Y-92174060D01*
X104673400Y-92015310D01*
X104673400Y-89916000D01*
X104927400Y-89916000D01*
X104927400Y-92015310D01*
X105086150Y-92174060D01*
X106676769Y-92174060D01*
X106910158Y-92077387D01*
X107088787Y-91898759D01*
X107185460Y-91665370D01*
X107185460Y-90074750D01*
X107026710Y-89916000D01*
X104927400Y-89916000D01*
X104673400Y-89916000D01*
X102574090Y-89916000D01*
X102415340Y-90074750D01*
X97690052Y-90074750D01*
X99374802Y-88390000D01*
X102415340Y-88390000D01*
X102415340Y-89503250D01*
M02*
