M48
;DRILL file {KiCad (2015-08-01 BZR 6032, Git 6a6a55f)-product} date 23-Aug-15 5:30:24 PM
;FORMAT={-:-/ absolute / inch / decimal}
FMAT,2
INCH,TZ
T1C0.016
T2C0.024
T3C0.039
%
G90
G05
M72
T1
X3.85Y-4.1
X3.95Y-3.5
X3.95Y-3.55
X4.Y-3.5
X4.Y-3.55
X4.25Y-3.5
X4.25Y-3.55
X4.3Y-3.5
X4.3Y-4.
X4.35Y-3.65
X4.35Y-4.05
X4.4Y-3.65
X4.45Y-3.25
X4.45Y-3.45
X4.45Y-4.05
X4.5Y-3.2
X4.5Y-3.3
X4.5Y-3.35
X4.5Y-3.5
X4.55Y-3.4
X4.55Y-3.9
T2
X3.8Y-3.9
X3.8Y-3.95
X3.8Y-4.
X3.95Y-3.75
X3.95Y-3.95
X4.Y-3.75
X4.Y-3.95
X4.05Y-3.75
X4.05Y-3.95
X4.15Y-3.75
X4.15Y-3.95
X4.2Y-3.75
X4.2Y-3.95
X4.25Y-3.75
X4.25Y-3.95
T3
X4.0079Y-3.3106G85X4.0079Y-3.3893
G05
X4.0866Y-3.535G85X4.1654Y-3.535
G05
X4.2441Y-3.3106G85X4.2441Y-3.3893
G05
T0
M30
